<svg width="24" height="24" viewBox="0 0 24 24" fill="none" xmlns="http://www.w3.org/2000/svg">
<path d="M22.162 5.65599C21.3986 5.99368 20.589 6.21546 19.76 6.31399C20.6338 5.79142 21.2877 4.969 21.6 3.99999C20.78 4.48799 19.881 4.82999 18.944 5.01499C18.3146 4.34157 17.4804 3.89495 16.571 3.74457C15.6616 3.59419 14.7279 3.74848 13.9153 4.18344C13.1026 4.6184 12.4564 5.30967 12.0771 6.14978C11.6978 6.98989 11.6068 7.93177 11.818 8.82899C10.1551 8.74564 8.52834 8.31351 7.04329 7.56065C5.55825 6.80779 4.24813 5.75104 3.19801 4.45899C2.8263 5.09744 2.63096 5.82321 2.63201 6.56199C2.63201 8.01199 3.37001 9.29299 4.49201 10.043C3.82802 10.0221 3.17864 9.84277 2.59801 9.51999V9.57199C2.59821 10.5377 2.93238 11.4736 3.54385 12.221C4.15533 12.9685 5.00649 13.4815 5.95301 13.673C5.33662 13.84 4.69031 13.8646 4.06301 13.745C4.32987 14.5762 4.85001 15.3032 5.5506 15.8241C6.25118 16.345 7.09714 16.6338 7.97001 16.65C7.10249 17.3313 6.10918 17.835 5.04689 18.1322C3.98459 18.4293 2.87413 18.5142 1.77901 18.382C3.6907 19.6114 5.9161 20.2641 8.18901 20.262C15.882 20.262 20.089 13.889 20.089 8.36199C20.089 8.18199 20.084 7.99999 20.076 7.82199C20.8949 7.23016 21.6016 6.49701 22.163 5.65699L22.162 5.65599Z" fill="black"/>
</svg>
